<svg t="1746684002479" class="icon" viewBox="0 0 1024 1024" version="1.1" xmlns="http://www.w3.org/2000/svg" p-id="7399"
     width="16" height="16">
    <path d="M860.914526 507.041684l91.24379 95.232c2.155789 2.317474 2.155789 5.928421 0 8.245895a5.497263 5.497263 0 0 1-3.934316 1.724632h-59.122526a377.370947 377.370947 0 0 1-732.968421 0h74.482526a305.583158 305.583158 0 0 0 584.003368 0h-52.870736a5.712842 5.712842 0 0 1-5.605053-5.820632c0-1.616842 0.592842-3.072 1.616842-4.149895l91.297684-95.232a8.138105 8.138105 0 0 1 11.856842 0z m-301.810526-146.32421l125.197474 323.368421h-71.302737l-40.097684-89.249684H470.177684l-36.810105 89.249684H360.933053l126.113684-323.368421h72.057263zM97.010526 432.613053h186.47579c1.509053 0 2.910316 0.538947 3.98821 1.670736 1.778526 1.940211 2.155789 4.850526 0.754527 7.221895l-0.754527 1.077895L196.176842 537.815579a8.084211 8.084211 0 0 1-10.509474 1.077895l-1.347368-1.077895-91.243789-95.232a5.928421 5.928421 0 0 1 2.694736-9.808842l1.239579-0.161684h186.47579H97.010526z m426.145685-0.754527l-34.384843 90.543158h67.260632l-32.875789-90.543158z m-0.538948-286.72a377.424842 377.424842 0 0 1 366.484211 287.474527h-74.482527a305.583158 305.583158 0 0 0-584.003368 0H156.133053a377.370947 377.370947 0 0 1 366.48421-287.474527z"
          p-id="7400" fill="#6E6E6E"></path>
</svg>